<svg width="64" height="64" viewBox="0 0 64 64" fill="none" xmlns="http://www.w3.org/2000/svg">
<g id="ion:calendar">
<path id="Vector" d="M60 15.9998C60 13.8781 59.1571 11.8433 57.6569 10.343C56.1566 8.84267 54.1217 7.99982 52 7.99982H50V6.05607C50 4.97982 49.1725 4.05607 48.0962 4.00232C47.8258 3.98929 47.5556 4.0313 47.3019 4.1258C47.0482 4.2203 46.8163 4.36533 46.6203 4.55209C46.4243 4.73886 46.2683 4.96347 46.1616 5.21232C46.055 5.46118 46 5.72908 46 5.99982V7.99982H18V6.05607C18 4.97982 17.1725 4.05607 16.0963 4.00232C15.8258 3.98929 15.5556 4.0313 15.3019 4.1258C15.0482 4.2203 14.8163 4.36533 14.6203 4.55209C14.4243 4.73886 14.2683 4.96347 14.1616 5.21232C14.055 5.46118 14 5.72908 14 5.99982V7.99982H12C9.87827 7.99982 7.84344 8.84267 6.34315 10.343C4.84285 11.8433 4 13.8781 4 15.9998V17.4998C4 17.6324 4.05268 17.7596 4.14645 17.8534C4.24021 17.9471 4.36739 17.9998 4.5 17.9998H59.5C59.6326 17.9998 59.7598 17.9471 59.8536 17.8534C59.9473 17.7596 60 17.6324 60 17.4998V15.9998ZM4 51.9998C4 54.1215 4.84285 56.1564 6.34315 57.6567C7.84344 59.157 9.87827 59.9998 12 59.9998H52C54.1217 59.9998 56.1566 59.157 57.6569 57.6567C59.1571 56.1564 60 54.1215 60 51.9998V22.3748C60 22.2754 59.9605 22.18 59.8902 22.1097C59.8198 22.0393 59.7245 21.9998 59.625 21.9998H4.375C4.27554 21.9998 4.18016 22.0393 4.10984 22.1097C4.03951 22.18 4 22.2754 4 22.3748V51.9998ZM47 25.9998C47.5933 25.9998 48.1734 26.1758 48.6667 26.5054C49.1601 26.8351 49.5446 27.3036 49.7716 27.8518C49.9987 28.3999 50.0581 29.0031 49.9424 29.5851C49.8266 30.167 49.5409 30.7016 49.1213 31.1211C48.7018 31.5407 48.1672 31.8264 47.5853 31.9422C47.0033 32.0579 46.4001 31.9985 45.852 31.7715C45.3038 31.5444 44.8352 31.1599 44.5056 30.6665C44.1759 30.1732 44 29.5932 44 28.9998C44 28.2042 44.3161 27.4411 44.8787 26.8785C45.4413 26.3159 46.2043 25.9998 47 25.9998ZM47 35.9998C47.5933 35.9998 48.1734 36.1758 48.6667 36.5054C49.1601 36.8351 49.5446 37.3036 49.7716 37.8518C49.9987 38.3999 50.0581 39.0031 49.9424 39.5851C49.8266 40.167 49.5409 40.7016 49.1213 41.1211C48.7018 41.5407 48.1672 41.8264 47.5853 41.9422C47.0033 42.0579 46.4001 41.9985 45.852 41.7715C45.3038 41.5444 44.8352 41.1599 44.5056 40.6665C44.1759 40.1732 44 39.5932 44 38.9998C44 38.2042 44.3161 37.4411 44.8787 36.8785C45.4413 36.3159 46.2043 35.9998 47 35.9998ZM37 25.9998C37.5933 25.9998 38.1734 26.1758 38.6667 26.5054C39.1601 26.8351 39.5446 27.3036 39.7716 27.8518C39.9987 28.3999 40.0581 29.0031 39.9424 29.5851C39.8266 30.167 39.5409 30.7016 39.1213 31.1211C38.7018 31.5407 38.1672 31.8264 37.5853 31.9422C37.0033 32.0579 36.4001 31.9985 35.852 31.7715C35.3038 31.5444 34.8352 31.1599 34.5056 30.6665C34.1759 30.1732 34 29.5932 34 28.9998C34 28.2042 34.3161 27.4411 34.8787 26.8785C35.4413 26.3159 36.2043 25.9998 37 25.9998ZM37 35.9998C37.5933 35.9998 38.1734 36.1758 38.6667 36.5054C39.1601 36.8351 39.5446 37.3036 39.7716 37.8518C39.9987 38.3999 40.0581 39.0031 39.9424 39.5851C39.8266 40.167 39.5409 40.7016 39.1213 41.1211C38.7018 41.5407 38.1672 41.8264 37.5853 41.9422C37.0033 42.0579 36.4001 41.9985 35.852 41.7715C35.3038 41.5444 34.8352 41.1599 34.5056 40.6665C34.1759 40.1732 34 39.5932 34 38.9998C34 38.2042 34.3161 37.4411 34.8787 36.8785C35.4413 36.3159 36.2043 35.9998 37 35.9998ZM37 45.9998C37.5933 45.9998 38.1734 46.1758 38.6667 46.5054C39.1601 46.8351 39.5446 47.3036 39.7716 47.8518C39.9987 48.3999 40.0581 49.0031 39.9424 49.5851C39.8266 50.167 39.5409 50.7016 39.1213 51.1211C38.7018 51.5407 38.1672 51.8264 37.5853 51.9422C37.0033 52.0579 36.4001 51.9985 35.852 51.7715C35.3038 51.5444 34.8352 51.1599 34.5056 50.6665C34.1759 50.1732 34 49.5932 34 48.9998C34 48.2042 34.3161 47.4411 34.8787 46.8785C35.4413 46.3159 36.2043 45.9998 37 45.9998ZM27 35.9998C27.5933 35.9998 28.1734 36.1758 28.6667 36.5054C29.1601 36.8351 29.5446 37.3036 29.7716 37.8518C29.9987 38.3999 30.0581 39.0031 29.9424 39.5851C29.8266 40.167 29.5409 40.7016 29.1213 41.1211C28.7018 41.5407 28.1672 41.8264 27.5853 41.9422C27.0033 42.0579 26.4001 41.9985 25.8519 41.7715C25.3038 41.5444 24.8352 41.1599 24.5056 40.6665C24.1759 40.1732 24 39.5932 24 38.9998C24 38.2042 24.3161 37.4411 24.8787 36.8785C25.4413 36.3159 26.2044 35.9998 27 35.9998ZM27 45.9998C27.5933 45.9998 28.1734 46.1758 28.6667 46.5054C29.1601 46.8351 29.5446 47.3036 29.7716 47.8518C29.9987 48.3999 30.0581 49.0031 29.9424 49.5851C29.8266 50.167 29.5409 50.7016 29.1213 51.1211C28.7018 51.5407 28.1672 51.8264 27.5853 51.9422C27.0033 52.0579 26.4001 51.9985 25.8519 51.7715C25.3038 51.5444 24.8352 51.1599 24.5056 50.6665C24.1759 50.1732 24 49.5932 24 48.9998C24 48.2042 24.3161 47.4411 24.8787 46.8785C25.4413 46.3159 26.2044 45.9998 27 45.9998ZM17 35.9998C17.5933 35.9998 18.1734 36.1758 18.6667 36.5054C19.1601 36.8351 19.5446 37.3036 19.7716 37.8518C19.9987 38.3999 20.0581 39.0031 19.9424 39.5851C19.8266 40.167 19.5409 40.7016 19.1213 41.1211C18.7018 41.5407 18.1672 41.8264 17.5853 41.9422C17.0033 42.0579 16.4001 41.9985 15.8519 41.7715C15.3038 41.5444 14.8352 41.1599 14.5056 40.6665C14.1759 40.1732 14 39.5932 14 38.9998C14 38.2042 14.3161 37.4411 14.8787 36.8785C15.4413 36.3159 16.2044 35.9998 17 35.9998ZM17 45.9998C17.5933 45.9998 18.1734 46.1758 18.6667 46.5054C19.1601 46.8351 19.5446 47.3036 19.7716 47.8518C19.9987 48.3999 20.0581 49.0031 19.9424 49.5851C19.8266 50.167 19.5409 50.7016 19.1213 51.1211C18.7018 51.5407 18.1672 51.8264 17.5853 51.9422C17.0033 52.0579 16.4001 51.9985 15.8519 51.7715C15.3038 51.5444 14.8352 51.1599 14.5056 50.6665C14.1759 50.1732 14 49.5932 14 48.9998C14 48.2042 14.3161 47.4411 14.8787 46.8785C15.4413 46.3159 16.2044 45.9998 17 45.9998Z" fill="#FFC182"/>
</g>
</svg>
