<svg width="41" height="41" viewBox="0 0 41 41" fill="none" xmlns="http://www.w3.org/2000/svg">
<path d="M34.1667 15.375H6.83332L8.25978 31.0592C8.33692 31.9081 8.72859 32.6975 9.35789 33.2724C9.9872 33.8474 10.8087 34.1663 11.6611 34.1667H29.3389C30.1913 34.1663 31.0128 33.8474 31.6421 33.2724C32.2714 32.6975 32.6631 31.9081 32.7402 31.0592L34.1667 15.375Z" stroke="#040705" stroke-width="1.5" stroke-linejoin="round"/>
<path d="M27.3333 18.7913V13.6663C27.3333 11.854 26.6134 10.1159 25.3319 8.83444C24.0504 7.55295 22.3123 6.83301 20.5 6.83301C18.6877 6.83301 16.9496 7.55295 15.6681 8.83444C14.3866 10.1159 13.6666 11.854 13.6666 13.6663V18.7913" stroke="#040705" stroke-width="1.5" stroke-linecap="round"/>
</svg>
